# xmcd
#
# Track frame offsets:
#	150
#	31018
#	49844
#	77800
#	92641
#	140346
#	166729
#
# Disc length: 2554 seconds
#
# Revision: 12
# Processed by: cddbd v1.5.2PL0 Copyright (c) Steve Scherf et al.
# Submitted via: Jack! The Knife 20 Magnifico
#
DISCID=4a09f807
DTITLE=Led Zeppelin - In Through The Out Door
DYEAR=1979
DGENRE=Hard Rock
TTITLE0=In The Evening
TTITLE1=South Bound Saurez
TTITLE2=Fool In The Rain
TTITLE3=Hot Dog
TTITLE4=Carouselambra
TTITLE5=All My Love
TTITLE6=I'm Gonna Crawl
EXTD=Jimmy Page
EXTT0=Jones, Page, Plant
EXTT1=Jones, Plant
EXTT2=Jones, Page, Plant
EXTT3=Page, Plant
EXTT4=Jones, Page, Plant
EXTT5=Jones, Plant
EXTT6=Jones, Page, Plant
PLAYORDER=
